<?xml version="1.0" encoding="UTF-8" standalone="no"?>
<!-- Created with Inkscape (http://www.inkscape.org/) -->

<svg
   xmlns:dc="http://purl.org/dc/elements/1.1/"
   xmlns:cc="http://creativecommons.org/ns#"
   xmlns:rdf="http://www.w3.org/1999/02/22-rdf-syntax-ns#"
   xmlns:svg="http://www.w3.org/2000/svg"
   xmlns="http://www.w3.org/2000/svg"
   xmlns:sodipodi="http://sodipodi.sourceforge.net/DTD/sodipodi-0.dtd"
   xmlns:inkscape="http://www.inkscape.org/namespaces/inkscape"
   width="64"
   height="64"
   id="svg2"
   version="1.1"
   inkscape:version="0.91 r"
   sodipodi:docname="settings.svg"
   inkscape:export-filename="/home/thewizardpp/projects/android/DiaryOfCalories/resources/exported/settings.png"
   inkscape:export-xdpi="68.467842"
   inkscape:export-ydpi="68.467842">
  <defs
     id="defs4" />
  <sodipodi:namedview
     id="base"
     pagecolor="#ffffff"
     bordercolor="#666666"
     borderopacity="1.0"
     inkscape:pageopacity="0.0"
     inkscape:pageshadow="2"
     inkscape:zoom="5.6"
     inkscape:cx="29.578307"
     inkscape:cy="29.233915"
     inkscape:document-units="px"
     inkscape:current-layer="layer1"
     showgrid="false"
     inkscape:window-width="1152"
     inkscape:window-height="844"
     inkscape:window-x="-2"
     inkscape:window-y="-3"
     inkscape:window-maximized="1" />
  <metadata
     id="metadata7">
    <rdf:RDF>
      <cc:Work
         rdf:about="">
        <dc:format>image/svg+xml</dc:format>
        <dc:type
           rdf:resource="http://purl.org/dc/dcmitype/StillImage" />
        <dc:title />
      </cc:Work>
    </rdf:RDF>
  </metadata>
  <g
     inkscape:label="Layer 1"
     inkscape:groupmode="layer"
     id="layer1"
     transform="translate(0,-988.36218)">
    <rect
       style="fill:#5bc0eb;fill-opacity:1;stroke:none;stroke-width:5;stroke-miterlimit:4;stroke-dasharray:none;stroke-opacity:1"
       id="rect4745"
       width="64"
       height="64"
       x="0"
       y="988.36218" />
    <path
       style="fill:none;stroke:#ffffff;stroke-width:2.50000000000000000;stroke-linecap:butt;stroke-linejoin:round;stroke-miterlimit:4;stroke-opacity:1;stroke-dasharray:none"
       d="m 27.475712,990.05857 0,4.82793 c -3.732648,0.65786 -7.204566,2.08587 -10.20242,4.15992 l -3.400806,-3.40081 -6.4979699,6.49799 3.4008069,3.4008 c -2.0845118,2.9815 -3.5423675,6.4236 -4.2206443,10.1417 l -4.8582952,0 0,9.3522 4.8582952,0 c 0.6714407,3.6806 2.1086427,7.0901 4.1599153,10.0506 l -3.431171,3.4008 6.589063,6.5891 3.400806,-3.4008 c 2.957119,2.0458 6.376095,3.4592 10.050598,4.1295 l 0,4.8583 9.352219,0 0,-4.8583 c 3.680622,-0.6714 7.090046,-2.1086 10.050598,-4.1599 l 3.400807,3.4312 6.589063,-6.5891 -3.400807,-3.4008 c 2.045867,-2.9571 3.459227,-6.3761 4.129551,-10.0506 l 4.858295,0 0,-9.2004 -4.827931,0 c -0.657859,-3.7326 -2.085867,-7.2046 -4.159915,-10.2024 l 3.400807,-3.4008 -6.49797,-6.49799 -3.400807,3.4008 c -2.981451,-2.08451 -6.423596,-3.54237 -10.141691,-4.22064 l 0,-4.8583 -9.200397,0 z"
       id="path4562"
       inkscape:connector-curvature="0" />
    <path
       sodipodi:type="arc"
       style="opacity:1;fill:none;stroke:#ffffff;stroke-width:2.78985547999999990;stroke-linejoin:round;stroke-miterlimit:4;stroke-opacity:1;stroke-dasharray:none"
       id="path4600-2"
       sodipodi:cx="-51.51778"
       sodipodi:cy="44.302025"
       sodipodi:rx="19.445436"
       sodipodi:ry="19.445436"
       d="M -32.072344,44.302025 A 19.445436,19.445436 0 0 1 -51.51778,63.747461 19.445436,19.445436 0 0 1 -70.963217,44.302025 19.445436,19.445436 0 0 1 -51.51778,24.856588 19.445436,19.445436 0 0 1 -32.072344,44.302025 Z"
       transform="matrix(0.89610378,0,0,0.89610378,78.165278,980.66297)" />
  </g>
</svg>
